<?xml version="1.0" encoding="UTF-8"?>
<svg id="Layer_2" data-name="Layer 2" xmlns="http://www.w3.org/2000/svg" viewBox="0 0 612.5 497.39">
  <defs>
    <style>
      .cls-1 {
        fill: #fff;
      }
    </style>
  </defs>
  <g id="Layer_1-2" data-name="Layer 1">
    <path class="cls-1" d="M612.5,325.34c-.04.96.02,1.92-.03,2.79.03.78-.03,1.57-.18,2.35-.1,1.13-.21,2.18-.48,3.31-.26,1.22-.62,2.35-.99,3.4-.43,1.22-.95,2.44-1.49,3.57-.79,1.74-1.79,3.31-2.97,4.79-.81,1.05-1.7,2.09-2.71,2.96-.22.26-.37.44-.61.61-.85.78-1.79,1.48-2.74,2.18-.38.35-.78.61-1.19.78-.96.61-2,1.22-3.07,1.66-1.38.7-2.79,1.22-4.29,1.66-1.33.44-2.76.78-4.22.96-.34.09-.58.17-.86.09-1.36.26-2.83.35-4.31.35-4.97,0-10.09-1.05-15.2-3.23-34.25-14.91-102.52-37.14-175.58-18.57-3.02.78-5.96,1.57-8.79,2.53-2.44.61-4.77,1.39-7.08,2.27-83.47,28.16-121.4,99.23-136.61,139.48-1.56,4.12-3.83,7.93-7.19,10.66-9.17,7.47-22.57,9.68-35.86,4.95-.09,0-.1-.09-.19-.09l-.1-.09c-10.62-3.78-19.35-11.33-24.81-20.57-3.9-6.6-4.79-14.15-3.71-21.07,8.53-54.94,9.46-140.31-33.63-234.56-1.26-2.7-2.53-5.41-3.79-8.11-5.22-10.72-10.86-21.36-16.91-31.82-2.78-4.71-5.63-9.33-8.56-13.95-3.28-5.14-6.62-10.2-10.15-15.26-2.22-3.31-4.52-6.54-6.91-9.76-6.76-9.33-14.03-18.57-21.6-27.46-1.69-2.01-3.37-4.01-5.05-5.93-3.87-4.45-7.72-8.72-11.74-12.99-2.78-2.96-5.56-5.84-8.41-8.72-.72-.78-1.54-1.57-2.35-2.35-4.39-4.45-8.87-8.89-13.51-13.16-3.12-2.88-6.23-5.67-9.34-8.46-.4-.35-.9-.78-1.3-1.13C1.7,48.53-2.82,32.41,1.74,19.42c.31-.87.69-1.83,1.09-2.7.47-.96,1.02-2.01,1.57-2.96.42-.7.93-1.39,1.44-2.09.36-.52.73-.96,1.11-1.4q-.01-.09.06-.17c.15-.17.38-.35.53-.52.24-.17.38-.35.61-.61.83-.87,1.68-1.66,2.62-2.35.7-.61,1.4-1.13,2.2-1.66.31-.26.72-.44,1.03-.7.81-.44,1.69-.96,2.6-1.31.97-.52,2.04-.96,3.21-1.31.82-.35,1.74-.61,2.76-.78,10.97-2.53,23.71.61,33.8,9.42,57.46,50.48,104.58,112.03,136.3,177.94,26.31,54.49,39.88,106.54,45.78,153.18,30.12-31.56,71.16-59.89,126.65-74.02,38.16-9.76,75.06-10.81,108.44-7.32,7.42.7,14.64,1.74,21.6,2.88,10.45,1.74,20.52,3.84,30.03,6.28,3.08.78,6.24,1.57,9.25,2.44,6.08,1.66,11.92,3.4,17.41,5.23,2.74.87,5.4,1.74,7.98,2.7,9.72,3.31,18.42,6.8,25.95,10.03.83.35,1.77.78,2.62,1.22,14.21,6.63,23.47,20.57,24.11,34.52Z"/>
  </g>
</svg>